# xmcd
#
# Track frame offsets:
#	150
#	19452
#	36048
#	62007
#	83272
#	97076
#	110625
#	128635
#	149215
#	172036
#
# Disc length: 2826 seconds
#
# Revision: 1
# Processed by: cddbd v1.5.2PL0 Copyright (c) Steve Scherf et al.
# Submitted via: audiograbber 1.83.01
#
DISCID=8b0b080a
DTITLE=Baskery - New Friends
DYEAR=2011
DGENRE=
TTITLE0=Shame and Dance
TTITLE1=Nobody Nice
TTITLE2=The Queen and Drone
TTITLE3=Rivers of Home
TTITLE4=Mortal
TTITLE5=Throw a Bone
TTITLE6=Rotten - Boys
TTITLE7=Beat Up the Blues
TTITLE8=As simple as This
TTITLE9=Tendencies
EXTD=
EXTT0=
EXTT1=
EXTT2=
EXTT3=
EXTT4=
EXTT5=
EXTT6=
EXTT7=
EXTT8=
EXTT9=
PLAYORDER=
